Patient4_TMGait_0pt3_01_left_13_EMG.mot
version=1
nRows=13
nColumns=33
inDegrees=no
endheader
time	1LAddLong	2LGlutMax	3LGlutMed	4LIliopsoas	5LSemiMemb	6LBicFemLong	7LRecFem	8LVastMed	9LVastLat	10LGasMed	11LTibAnt	12lTibPost	13LPeroneusLong	14LSol	15LExtDigLong	16LFlexDigLong	17RAddLong	18RGlutMax	19RGlutMed	20RIliopsoas	21RSemiMemb	22RBicFemLong	23RRecFem	24RVastMed	25RVastLat	26RGasMed	27RTibAnt	28RTibPost	29RPeroneusLong	30RSol	31RExtDigLong	32RFlexDigLong
24.1	0.007477	-0.25116	-0.0177	-0.005646	-0.00061	-0.022583	-0.10605	-0.014038	-0.008545	-0.043793	-0.062866	0.002136	0.071106	0.007477	-0.31586	-0.020447	0.037231	0.10529	0.16037	0.022583	-0.062256	-0.090332	-0.20645	-0.20676	0.52704	-0.020142	-0.017242	-0.003967	-0.90378	-0.10284	-0.000153	0.000763
24.101	0.003815	-0.22888	-0.005951	-0.00885	0.000458	-0.045319	-0.11597	-0.010223	0.010834	-0.0177	-0.061188	0.004578	0.066071	-0.062103	-0.22614	-0.02121	0.049286	0.11917	0.53604	-0.008698	-0.033569	-0.075531	-0.2536	-0.026398	0.62439	-0.031891	0.089417	-0.006104	-0.82718	-0.096436	-0.00412	-0.011597
24.102	-0.000305	-0.21484	0.011749	0.002136	0.00824	-0.045319	-0.098724	-0.004578	0.013733	0.033722	-0.025024	0.005188	0	-0.057526	-0.13596	-0.033875	0.063019	0.10025	0.44617	-0.02121	-0.040131	-0.045624	-0.37064	-0.15549	0.59784	-0.024109	0.042572	-0.002747	0.071564	-0.15793	-0.00061	-0.009155
24.103	0.008545	-0.22293	-0.002289	0.03479	0.005341	-0.05188	-0.084686	-0.013275	0.012665	0.010986	-0.009003	0.003052	-0.024261	-0.03418	-0.14267	-0.01709	0.090637	0.074005	0.10788	-0.11459	-0.054321	-0.052795	-0.066376	-0.12253	0.36682	-0.009613	-0.070496	-0.004425	2.7995	-0.20584	0.001221	-0.014343
24.104	0.007629	-0.21805	0.008698	0.037231	0.002441	-0.055237	-0.098114	-0.007172	0.011597	0.016785	0.044861	0.003357	0.00061	-0.020599	-0.12878	-0.038147	0.072021	0.03418	0.15869	-0.1297	-0.060425	-0.13825	0.14435	-0.10208	0.15686	-0.018921	-0.012512	-0.007477	1.4446	-0.091095	0.001068	-0.020142
24.105	0.003052	-0.22537	0.020142	0.028687	0.004883	-0.039825	-0.11078	-0.005798	-0.002441	-0.000458	-0.06134	0.001221	0.028687	-0.074615	0.059814	-0.02243	0.045319	0.053253	0.16953	-0.043793	-0.070038	-0.16785	0.1358	0.07019	-0.18555	-0.020752	0.17853	-0.003204	-1.0614	-0.058136	0.00061	-0.020752
24.106	0.006866	-0.17929	0.043793	-0.008545	-0.001831	-0.054474	-0.0737	-0.010223	0.002899	-0.023651	-0.058136	0.002594	0.032654	-0.077209	0.058594	-0.011292	0.035095	0.05722	0.12909	-0.096893	-0.036316	-0.13184	0.085449	0.085144	-0.29633	-0.018311	0.12772	-0.007172	-1.7418	0.023499	-0.001678	-0.0177
24.107	0.010681	-0.19287	-0.007324	-0.001068	-0.000763	-0.052795	-0.084076	-0.015259	0.002899	-0.021667	-0.052032	0.000458	0.025482	-0.040894	0.2475	-0.032654	0.00885	0.071411	0.085144	0.023193	0.041809	0.035706	-0.028992	0.1535	-0.38254	-0.009308	0.007172	-0.004578	-1.6286	-0.019226	-0.003052	-0.020447
24.108	0.010223	-0.15457	-0.024719	-0.000916	-0.000916	-0.046844	-0.083313	-0.015564	0.007172	-0.03006	-0.059509	-0.007324	0.082397	0.016785	0.59631	-0.02182	-0.029297	0.17807	-0.41092	0.2388	0.013885	0.097656	-0.000153	0.027161	-0.42099	-0.007019	-0.15839	-0.006714	1.5314	-0.11948	-0.002136	-0.025787
24.109	0.010071	-0.15656	0.008545	0	0.011749	-0.044556	-0.059357	-0.010223	0.001373	-0.014954	-0.041656	0.003357	0.081787	0.089111	0.034332	-0.029297	-0.024872	0.090179	-0.12054	0.23346	-0.07309	-0.11139	-0.034332	-0.067291	-0.41077	-0.016785	0.15396	-0.003815	-1.8979	-0.11704	-0.003357	-0.024109
24.11	0.013428	-0.1239	-0.004272	0.029449	0.000916	-0.027924	-0.023804	-0.014191	-0.000458	0.000763	0.056458	-0.003967	-0.017548	0.052948	0.24536	-0.028839	-0.032654	0.14435	0.84183	0.14542	-0.046997	0.12146	-0.004883	-0.066223	-0.21973	-0.018005	0.31204	-0.015106	-2.9559	-0.12451	-0.002136	-0.024414
24.111	0.01358	-0.12329	-0.016785	0.024567	-0.002289	-0.041656	-0.03067	-0.024719	0.003052	0.00824	0.052795	-0.003662	0.002289	0.000916	-0.013428	-0.031433	-0.026398	0.10254	0.55039	0.14511	-0.000153	0.4689	0.020752	0.007477	-0.053253	-0.016937	0.099945	-0.00473	-0.21042	0.02121	-0.001373	-0.025024
24.112	0.009155	-0.075531	-0.015869	0.003052	0.003967	-0.049438	-0.029449	-0.088654	0.002594	0.016785	-0.032196	0.005493	-0.007324	0.018616	-0.22797	-0.026093	-0.015106	0.070801	0.60059	0.005951	-0.046082	0.17227	-0.003815	0.053711	0.030823	-0.037994	0.053101	-0.008087	1.1803	0.26916	-0.002747	-0.032501
